<svg width="46" height="19" viewBox="0 0 46 19" fill="none" xmlns="http://www.w3.org/2000/svg">
<g clip-path="url(#clip0_87_2902)">
<path d="M36.591 18.6346C41.4026 18.6346 45.3031 14.5449 45.3031 9.49997C45.3031 4.45506 41.4026 0.365356 36.591 0.365356C31.7795 0.365356 27.8789 4.45506 27.8789 9.49997C27.8789 14.5449 31.7795 18.6346 36.591 18.6346Z" fill="#FEF5F4" stroke="#EAEAEA"/>
<path d="M40.774 9.60304C40.774 9.29611 40.7531 8.9965 40.6973 8.68958H36.6758V10.4142H38.9828C38.8852 10.9696 38.5785 11.4592 38.1324 11.7734V12.8915H39.5055C40.307 12.1169 40.774 10.9623 40.774 9.60304Z" fill="#4285F4"/>
<path d="M36.6746 13.9729C37.8246 13.9729 38.7934 13.5783 39.5043 12.8914L38.1313 11.7733C37.7479 12.0437 37.2531 12.2044 36.6816 12.2044C35.5664 12.2044 34.6255 11.4152 34.284 10.3556H32.8691V11.5102C33.587 13.0229 35.0646 13.9729 36.6746 13.9729Z" fill="#34A853"/>
<path d="M34.2778 10.3552C34.0966 9.79977 34.0966 9.20054 34.2778 8.64515V7.49054H32.863C32.2566 8.75477 32.2566 10.2455 32.863 11.5098L34.2778 10.3552Z" fill="#FBBC04"/>
<path d="M36.6757 6.7963C37.2821 6.78899 37.8745 7.03015 38.3136 7.46861L39.5333 6.18976C38.7596 5.42976 37.7351 5.01322 36.6757 5.02784C35.0657 5.02784 33.5881 5.98515 32.8633 7.49053L34.2781 8.64515C34.6196 7.58553 35.5606 6.7963 36.6757 6.7963Z" fill="#EA4335"/>
<path d="M22.9992 18.6345C27.8108 18.6345 31.7114 14.5448 31.7114 9.49985C31.7114 4.45494 27.8108 0.365234 22.9992 0.365234C18.1877 0.365234 14.2871 4.45494 14.2871 9.49985C14.2871 14.5448 18.1877 18.6345 22.9992 18.6345Z" fill="#5F259F" stroke="#EAEAEA"/>
<path d="M26.0377 7.97308C26.0377 7.71001 25.8216 7.48347 25.5707 7.48347H24.7134L22.748 5.11578C22.5668 4.89654 22.281 4.82347 21.9952 4.89654L21.3122 5.12308C21.2077 5.15962 21.1659 5.31308 21.2425 5.38616L23.3892 7.52731H20.1343C20.0298 7.52731 19.9531 7.60039 19.9531 7.71731V8.09001C19.9531 8.35308 20.1692 8.57962 20.4201 8.57962H20.9219V10.3773C20.9219 11.7292 21.6049 12.5185 22.748 12.5185C23.1034 12.5185 23.3892 12.4819 23.7516 12.3285V13.5269C23.7516 13.8631 24.0025 14.1262 24.3231 14.1262H24.8249C24.9295 14.1262 25.041 14.0165 25.041 13.8996V8.53578H25.8634C25.968 8.53578 26.0446 8.4627 26.0446 8.34578V7.97308H26.0377ZM23.7516 11.2031C23.5356 11.3127 23.2498 11.3565 23.0337 11.3565C22.4622 11.3565 22.1765 11.0569 22.1765 10.3773V8.57962H23.7516V11.2031Z" fill="white"/>
<path d="M9.40939 18.736C14.221 18.736 18.1215 14.6463 18.1215 9.60141C18.1215 4.5565 14.221 0.466797 9.40939 0.466797C4.59782 0.466797 0.697266 4.5565 0.697266 9.60141C0.697266 14.6463 4.59782 18.736 9.40939 18.736Z" fill="#F8FDFE" stroke="#EAEAEA"/>
<path fill-rule="evenodd" clip-rule="evenodd" d="M15.9061 8.70268C15.7946 8.32999 15.4601 8.07422 15.0907 8.07422H15.0768C14.8328 8.07422 14.6028 8.18383 14.4495 8.35191C14.2961 8.17653 14.0661 8.07422 13.8222 8.07422H13.8083C13.5922 8.07422 13.3901 8.1546 13.2368 8.30076V8.23499C13.2368 8.16922 13.174 8.10345 13.1113 8.10345H12.5258C12.4492 8.10345 12.4004 8.16922 12.4004 8.23499V11.6184C12.4004 11.6988 12.4631 11.75 12.5258 11.75H13.1113C13.174 11.75 13.2228 11.6988 13.2368 11.6331V9.18499C13.2507 9.07537 13.3274 8.98768 13.4389 8.97306H13.5434C13.5922 8.97306 13.634 9.0023 13.6689 9.02422C13.7177 9.06076 13.7455 9.13383 13.7455 9.21422V11.6331C13.7455 11.7134 13.8083 11.7646 13.871 11.7646H14.4565C14.5192 11.7646 14.5819 11.7134 14.5819 11.6331V9.20691C14.5819 9.12653 14.6168 9.06076 14.6725 9.0096C14.7004 8.98037 14.7352 8.97306 14.7771 8.97306H14.8816C15.0071 8.98768 15.0837 9.08999 15.0837 9.1996V11.6038C15.0837 11.6842 15.1465 11.7354 15.2092 11.7354H15.7946C15.8713 11.7354 15.9201 11.6696 15.9201 11.6038V9.02422C15.9549 8.84883 15.934 8.76845 15.9061 8.70268Z" fill="#00BAF2"/>
<path fill-rule="evenodd" clip-rule="evenodd" d="M11.968 8.11025H11.6334V7.53294C11.6334 7.46717 11.5846 7.41602 11.5219 7.41602C11.508 7.41602 11.508 7.41602 11.494 7.41602C11.1246 7.52563 11.2013 8.07371 10.5252 8.12486H10.4625C10.4486 8.12486 10.4486 8.12486 10.4346 8.12486C10.3719 8.13948 10.3301 8.19063 10.3301 8.2564V8.87025C10.3301 8.95063 10.3928 9.00179 10.4555 9.00179H10.811V11.6472C10.811 11.7276 10.8598 11.7787 10.9364 11.7787H11.508C11.5846 11.7787 11.6334 11.7129 11.6334 11.6472V9.00179H11.968C12.0446 9.00179 12.0934 8.93602 12.0934 8.87025V8.24178C12.0934 8.1614 12.0307 8.11025 11.968 8.11025Z" fill="#00BAF2"/>
<path fill-rule="evenodd" clip-rule="evenodd" d="M9.86297 8.10938H9.27751C9.20085 8.10938 9.15206 8.17514 9.15206 8.24091V9.52707C9.15206 9.60745 9.08933 9.67322 9.01267 9.67322H8.76873C8.69206 9.67322 8.62933 9.60745 8.62933 9.52707V8.24091C8.62933 8.16053 8.5666 8.10938 8.50388 8.10938H7.91842C7.84176 8.10938 7.79297 8.17514 7.79297 8.24091V9.65861C7.79297 10.1921 8.14842 10.5794 8.65024 10.5794H9.01963C9.01963 10.5794 9.03357 10.5794 9.04751 10.5794C9.11024 10.594 9.15903 10.6451 9.15903 10.7255C9.15903 10.8059 9.11024 10.8571 9.04751 10.8717C9.04751 10.8717 9.04751 10.8717 9.03357 10.8717H8.1763C8.09963 10.8717 8.05085 10.9375 8.05085 11.0032V11.6317C8.05085 11.7121 8.11357 11.7632 8.1763 11.7632H9.13115C9.626 11.7632 9.98842 11.3759 9.98842 10.8425V8.23361C9.98842 8.16053 9.93964 8.10938 9.86297 8.10938Z" fill="#404040"/>
<path fill-rule="evenodd" clip-rule="evenodd" d="M4.23103 9.24937V9.63668C4.23103 9.71707 4.1683 9.78284 4.09163 9.78284H4.03588H3.72224V9.00822H4.09163C4.1683 9.00822 4.23103 9.07399 4.23103 9.15437V9.24937ZM4.27982 8.10938H3.00436C2.94163 8.10938 2.87891 8.17514 2.87891 8.24091V11.6244C2.87891 11.7048 2.92769 11.7559 2.99042 11.7559H3.58982C3.66648 11.7559 3.71527 11.6901 3.71527 11.6244V10.6744H4.27285C4.74679 10.6744 5.06042 10.3236 5.06042 9.83399V8.94976C5.06739 8.46014 4.73982 8.10938 4.27982 8.10938Z" fill="#404040"/>
<path fill-rule="evenodd" clip-rule="evenodd" d="M6.63643 10.7036V10.7986C6.63643 10.8132 6.63643 10.8132 6.63643 10.8278C6.63643 10.8425 6.63643 10.8425 6.63643 10.8571C6.6225 10.9082 6.57371 10.9521 6.51098 10.9521H6.26704C6.19037 10.9521 6.12765 10.8863 6.12765 10.8205V10.7036V10.3967V10.3017C6.12765 10.2213 6.19037 10.1701 6.26704 10.1701H6.51098C6.58765 10.1701 6.65037 10.2359 6.65037 10.3017V10.7182H6.63643V10.7036ZM6.5528 8.10938H5.74431C5.66765 8.10938 5.61886 8.16053 5.61886 8.24091V8.82553C5.61886 8.90591 5.68159 8.95707 5.75825 8.95707H6.52492C6.58765 8.97168 6.63643 9.00822 6.63643 9.08861V9.16899C6.6225 9.23476 6.58765 9.28591 6.52492 9.30053H6.14159C5.6328 9.30053 5.27734 9.65861 5.27734 10.1701V10.8936C5.27734 11.3978 5.58401 11.7486 6.0928 11.7486H7.15219C7.34037 11.7486 7.49371 11.6025 7.49371 11.3978V9.03014C7.49371 8.46745 7.21492 8.10938 6.5528 8.10938Z" fill="#404040"/>
</g>
<defs>
<clipPath id="clip0_87_2902">
<rect width="46" height="19" fill="white"/>
</clipPath>
</defs>
</svg>
