<svg width="24" height="24" viewBox="0 0 24 24" fill="none" xmlns="http://www.w3.org/2000/svg">
<path d="M12 23.25C9.77497 23.25 7.59989 22.5902 5.74984 21.354C3.89979 20.1179 2.45785 18.3609 1.60636 16.3052C0.754875 14.2495 0.532087 11.9875 0.966171 9.80524C1.40025 7.62295 2.47171 5.61839 4.04505 4.04505C5.61839 2.47171 7.62295 1.40025 9.80524 0.966171C11.9875 0.532087 14.2495 0.754875 16.3052 1.60636C18.3609 2.45785 20.1179 3.89979 21.354 5.74984C22.5902 7.59989 23.25 9.77497 23.25 12C23.2466 14.9827 22.0603 17.8422 19.9512 19.9512C17.8422 22.0603 14.9827 23.2466 12 23.25ZM12 2.25001C10.0716 2.25001 8.18657 2.82183 6.5832 3.89318C4.97982 4.96452 3.73013 6.48726 2.99218 8.26884C2.25423 10.0504 2.06114 12.0108 2.43735 13.9021C2.81355 15.7935 3.74215 17.5307 5.10571 18.8943C6.46928 20.2579 8.20656 21.1865 10.0979 21.5627C11.9892 21.9389 13.9496 21.7458 15.7312 21.0078C17.5127 20.2699 19.0355 19.0202 20.1068 17.4168C21.1782 15.8134 21.75 13.9284 21.75 12C21.747 9.41506 20.7188 6.93684 18.891 5.109C17.0632 3.28117 14.585 2.25298 12 2.25001Z" fill="#404040"/>
<path d="M12 12.75C11.3325 12.75 10.68 12.5521 10.125 12.1812C9.56994 11.8104 9.13735 11.2833 8.88191 10.6666C8.62646 10.0499 8.55963 9.37126 8.68985 8.71657C8.82008 8.06189 9.14151 7.46052 9.61352 6.98852C10.0855 6.51651 10.6869 6.19508 11.3416 6.06485C11.9963 5.93463 12.6749 6.00146 13.2916 6.25691C13.9083 6.51235 14.4354 6.94494 14.8062 7.49995C15.1771 8.05497 15.375 8.70749 15.375 9.375C15.374 10.2698 15.0181 11.1277 14.3854 11.7604C13.7527 12.3931 12.8948 12.749 12 12.75ZM12 7.5C11.6292 7.5 11.2666 7.60997 10.9583 7.816C10.65 8.02202 10.4096 8.31486 10.2677 8.65747C10.1258 9.00008 10.0887 9.37708 10.161 9.7408C10.2334 10.1045 10.412 10.4386 10.6742 10.7008C10.9364 10.9631 11.2705 11.1416 11.6342 11.214C11.9979 11.2863 12.3749 11.2492 12.7175 11.1073C13.0601 10.9654 13.353 10.725 13.559 10.4167C13.765 10.1084 13.875 9.74584 13.875 9.375C13.875 8.87772 13.6775 8.40081 13.3258 8.04918C12.9742 7.69755 12.4973 7.5 12 7.5Z" fill="#404040"/>
<path d="M16.5001 17.25C16.3012 17.2499 16.1104 17.1709 15.9698 17.0302C14.9156 15.9801 13.4881 15.3904 12.0001 15.3904C10.512 15.3904 9.08457 15.9801 8.03031 17.0302C7.88886 17.1669 7.69941 17.2425 7.50276 17.2407C7.30611 17.239 7.118 17.1602 6.97895 17.0211C6.83989 16.882 6.76101 16.6939 6.75931 16.4973C6.7576 16.3006 6.83319 16.1112 6.96981 15.9697C8.30536 14.6384 10.1143 13.8907 12.0001 13.8907C13.8859 13.8907 15.6948 14.6384 17.0303 15.9697C17.1352 16.0746 17.2066 16.2082 17.2355 16.3537C17.2644 16.4992 17.2496 16.65 17.1928 16.787C17.1361 16.924 17.04 17.0411 16.9167 17.1235C16.7933 17.206 16.6484 17.25 16.5001 17.25Z" fill="#404040"/>
</svg>
