<svg width="24" height="24" viewBox="0 0 24 24" fill="none" xmlns="http://www.w3.org/2000/svg">
<path d="M5.76 4.90503C3 4.90503 0.75 7.17753 0.75 9.96753C0.75 11.865 1.7775 13.5675 3.405 14.4375C3.3225 15.3225 2.955 17.205 1.4475 17.6175C1.0875 17.715 0.855 18.06 0.9 18.4275C0.945 18.795 1.245 19.08 1.62 19.0875H1.7325C2.4675 19.0875 6.5025 18.9225 9.1125 15.42C10.8075 13.1475 11.31 10.68 10.5375 8.50503C9.8925 6.35253 7.9725 4.90503 5.76 4.90503ZM7.905 14.5275C6.81 15.9975 5.3775 16.7625 4.1625 17.16C4.935 15.735 4.935 14.07 4.935 13.965C4.935 13.665 4.7475 13.3875 4.4625 13.275C3.12 12.735 2.25 11.43 2.25 9.96753C2.25 8.00253 3.825 6.40503 5.76 6.40503C7.305 6.40503 8.6475 7.42503 9.1125 8.97003C9.9375 11.2875 8.715 13.44 7.9125 14.52L7.905 14.5275Z" fill="#404040"/>
<path d="M22.9049 8.51248C22.2599 6.35998 20.3399 4.91248 18.1274 4.91248C15.3674 4.91248 13.1174 7.18498 13.1174 9.97498C13.1174 11.8725 14.1449 13.575 15.7724 14.445C15.6899 15.33 15.3224 17.2125 13.8149 17.625C13.4549 17.7225 13.2224 18.0675 13.2674 18.435C13.3124 18.8025 13.6124 19.0875 13.9874 19.095H14.0999C14.8349 19.095 18.8699 18.93 21.4799 15.4275C23.1749 13.155 23.6774 10.6875 22.9049 8.51248ZM20.2724 14.5275C19.1774 15.9975 17.7449 16.7625 16.5299 17.16C17.3024 15.735 17.3024 14.07 17.3024 13.965C17.3024 13.665 17.1149 13.3875 16.8299 13.275C15.4874 12.735 14.6174 11.43 14.6174 9.96748C14.6174 8.00248 16.1924 6.40498 18.1274 6.40498C19.6724 6.40498 21.0149 7.42498 21.4799 8.96998C22.3049 11.2875 21.0824 13.44 20.2799 14.52L20.2724 14.5275Z" fill="#404040"/>
</svg>
