<svg width="24" height="24" viewBox="0 0 24 24" fill="none" xmlns="http://www.w3.org/2000/svg">
<g clip-path="url(#clip0_96_3617)">
<path d="M13.875 15.75H8.313C8.139 15.75 7.989 15.6315 7.9485 15.462L5.4885 5.0235C5.2065 3.8325 4.1565 3 2.9325 3H1.125C0.504 3 0 3.504 0 4.125C0 4.746 0.504 5.25 1.125 5.25H2.9325C3.108 5.25 3.258 5.3685 3.2985 5.538L5.7585 15.9765C6.0375 17.1675 7.089 18 8.313 18H13.875C14.4975 18 15 17.496 15 16.875C15 16.254 14.4975 15.75 13.875 15.75Z" fill="#404040"/>
<path d="M23.2065 6.04946C22.6125 5.86946 21.984 6.19946 21.7995 6.79346L19.125 15.4845C19.0755 15.642 18.9315 15.75 18.7665 15.75H17.625C17.004 15.75 16.5 16.254 16.5 16.875C16.5 17.496 17.004 18 17.625 18H18.7665C19.926 18 20.934 17.2545 21.276 16.1475L23.9505 7.45646C24.1335 6.86246 23.8005 6.23246 23.2065 6.04946Z" fill="#404040"/>
<path d="M9.75 19.5C8.5095 19.5 7.5 20.5095 7.5 21.75C7.5 22.9905 8.5095 24 9.75 24C10.9905 24 12 22.9905 12 21.75C12 20.5095 10.9905 19.5 9.75 19.5Z" fill="#404040"/>
<path d="M17.25 19.5C16.0095 19.5 15 20.5095 15 21.75C15 22.9905 16.0095 24 17.25 24C18.4905 24 19.5 22.9905 19.5 21.75C19.5 20.5095 18.4905 19.5 17.25 19.5Z" fill="#404040"/>
<path d="M10.125 5.625H12.375V7.875C12.375 8.496 12.879 9 13.5 9C14.121 9 14.625 8.496 14.625 7.875V5.625H16.875C17.496 5.625 18 5.121 18 4.5C18 3.879 17.496 3.375 16.875 3.375H14.625V1.125C14.625 0.504 14.121 0 13.5 0C12.879 0 12.375 0.504 12.375 1.125V3.375H10.125C9.504 3.375 9 3.879 9 4.5C9 5.121 9.504 5.625 10.125 5.625Z" fill="#404040"/>
</g>
<defs>
<clipPath id="clip0_96_3617">
<rect width="24" height="24" fill="white"/>
</clipPath>
</defs>
</svg>
