<svg width="24" height="24" viewBox="0 0 24 24" fill="none" xmlns="http://www.w3.org/2000/svg">
<path d="M12 1.95122C6.48 1.95122 2 6.32247 2 11.7085C2 17.0945 6.48 21.4657 12 21.4657C17.52 21.4657 22 17.0945 22 11.7085C22 6.32247 17.52 1.95122 12 1.95122ZM12 4.8784C13.66 4.8784 15 6.18587 15 7.80558C15 9.42528 13.66 10.7328 12 10.7328C10.34 10.7328 9 9.42528 9 7.80558C9 6.18587 10.34 4.8784 12 4.8784ZM12 18.7337C9.5 18.7337 7.29 17.4848 6 15.5919C6.03 13.6502 10 12.5866 12 12.5866C13.99 12.5866 17.97 13.6502 18 15.5919C16.71 17.4848 14.5 18.7337 12 18.7337Z" fill="#FFE403"/>
</svg>
