<svg width="11" height="13" viewBox="0 0 11 13" fill="none" xmlns="http://www.w3.org/2000/svg">
<path d="M8.88352 1.52252C7.90065 0.540719 6.59426 0 5.20501 0C3.81573 0 2.50935 0.540719 1.52649 1.52255C0.543723 2.5043 0.0016029 3.80994 0 5.20008C0.000998619 6.21202 0.28207 7.16143 0.859244 8.1026C1.35906 8.91757 2.00838 9.62866 2.69581 10.3815C3.36985 11.1196 4.06679 11.8829 4.6234 12.7635C4.71646 12.9107 4.8785 13 5.05266 13H5.35735C5.5315 13 5.69354 12.9107 5.7866 12.7635C6.34321 11.8829 7.04016 11.1196 7.71421 10.3815C8.40164 9.62866 9.05094 8.91757 9.55076 8.10258C10.128 7.1614 10.409 6.21197 10.41 5.19896C10.4084 3.80991 9.86629 2.50428 8.88352 1.52252ZM6.96422 9.69665C6.3649 10.353 5.74823 11.0283 5.20501 11.805C4.66179 11.0283 4.04511 10.353 3.44578 9.69665C2.14277 8.26968 1.01741 7.03726 1.01563 5.20015C1.01827 2.8928 2.89763 1.01562 5.20501 1.01562C7.51238 1.01562 9.39173 2.8928 9.39439 5.19906C9.39261 7.03726 8.26723 8.26965 6.96422 9.69665Z" fill="#FFE403"/>
</svg>
