<svg width="6" height="6" viewBox="0 0 6 6" fill="none" xmlns="http://www.w3.org/2000/svg">
<path d="M2.9729 0C1.33364 0 0 1.33364 0 2.97289C0 4.61214 1.33364 5.94579 2.9729 5.94579C3.24974 5.94579 3.52407 5.90768 3.78823 5.83246C4.04091 5.76057 4.18743 5.49744 4.11552 5.24476C4.04357 4.9921 3.78049 4.84555 3.52779 4.9175C3.34838 4.96857 3.16167 4.99447 2.9729 4.99447C1.85819 4.99447 0.951344 4.08759 0.951344 2.97289C0.951344 1.8582 1.85819 0.951321 2.9729 0.951321C4.08761 0.951321 4.99447 1.8582 4.99447 2.97289C4.99447 3.17122 4.96592 3.36699 4.90962 3.5547C4.83418 3.80633 4.97699 4.07149 5.22861 4.14695C5.48026 4.22237 5.74537 4.07962 5.82086 3.82797C5.90375 3.55154 5.94581 3.26386 5.94581 2.97289C5.94581 1.33364 4.61217 0 2.9729 0Z" fill="#FFE403"/>
</svg>
