<svg width="13" height="10" viewBox="0 0 13 10" fill="none" xmlns="http://www.w3.org/2000/svg">
<path d="M6.17873 0C3.76902 0 1.66826 0.988596 0 2.47149L0.988596 3.58366C2.34792 2.34792 4.20153 1.60647 6.17873 1.60647C8.15592 1.60647 10.0095 2.34792 11.3689 3.58366L12.2957 2.47149C10.6892 0.988596 8.52664 0 6.17873 0ZM2.03898 4.69583L3.08936 5.86979C3.8926 5.12834 4.94298 4.69583 6.17873 4.69583C7.35268 4.69583 8.46485 5.12834 9.32987 5.86979L10.3803 4.69583C9.2063 3.76902 7.72341 3.08936 6.17873 3.08936C4.57226 3.08936 3.15115 3.76902 2.03898 4.69583ZM4.07796 6.98196L6.17873 9.32987L8.27949 6.98196C7.66162 6.54945 6.92017 6.17873 6.17873 6.17873C5.37549 6.17873 4.63404 6.54945 4.07796 6.98196Z" fill="#383F4F"/>
</svg>
